<svg xmlns="http://www.w3.org/2000/svg" viewBox="0 0 24 24">
  <path fill="#F2F2F2" d="M10.9 3.9a1.1 1.1 0 1 1 2.2 0V6h-2.2V3.9Z"/>
  <circle cx="12" cy="2.6" r="1.4" fill="#F2F2F2"/>
  <path fill="#F2F2F2" d="M1.6 10.1c0-.8.6-1.4 1.4-1.4h1.2v6.6H3c-.8 0-1.4-.6-1.4-1.4v-3.8ZM19.8 8.7H21c.8 0 1.4.6 1.4 1.4v3.8c0 .8-.6 1.4-1.4 1.4h-1.2V8.7Z"/>
  <path fill="#F2F2F2" fill-rule="evenodd" d="M5.9 6.4h12.2c1.5 0 2.7 1.2 2.7 2.7v6.1c0 1.5-1.2 2.7-2.7 2.7H5.9c-1.5 0-2.7-1.2-2.7-2.7V9.1c0-1.5 1.2-2.7 2.7-2.7Zm1.8 4c-.5 0-.9.4-.9.9v1.2c0 .5.4.9.9.9h2.5c.5 0 .9-.4.9-.9v-1.2c0-.5-.4-.9-.9-.9H7.7Zm6 0c-.5 0-.9.4-.9.9v1.2c0 .5.4.9.9.9h2.5c.5 0 .9-.4.9-.9v-1.2c0-.5-.4-.9-.9-.9h-2.5Zm-4.2 4.5a.7.7 0 0 0 0 1.4h5a.7.7 0 0 0 0-1.4h-5Z" clip-rule="evenodd"/>
  <path fill="#F2F2F2" d="M7.1 18.6h9.8v1.3c0 1.2-1 2.1-2.1 2.1H9.2c-1.2 0-2.1-1-2.1-2.1v-1.3Z"/>
</svg>
